{
  "accessors": [
    {
      "bufferView": 2,
      "componentType": 5126,
      "count": 1441,
      "max": [
        0.45151001214981079,
        0.47478801012039185,
        1.962164044380188
      ],
      "min": [
        -0.45384699106216431,
        -0.4490790069103241,
        0.040449000895023346
      ],
      "type": "VEC3"
    },
    {
      "bufferView": 2,
      "byteOffset": 17292,
      "componentType": 5126,
      "count": 1441,
      "max": [
        0.99951630830764771,
        0.99987679719924927,
        0.99990200996398926
      ],
      "min": [
        -0.99996209144592285,
        -0.99983221292495728,
        -0.99993491172790527
      ],
      "type": "VEC3"
    },
    {
      "bufferView": 3,
      "componentType": 5126,
      "count": 1441,
      "max": [
        0.9997984766960144,
        0.9997633695602417,
        0.9956744909286499,
        1
      ],
      "min": [
        -0.99999105930328369,
        -0.98349094390869141,
        -0.99910998344421387,
        1
      ],
      "type": "VEC4"
    },
    {
      "bufferView": 1,
      "componentType": 5126,
      "count": 1441,
      "max": [
        0.98740899562835693,
        0.99548900127410889
      ],
      "min": [
        0.010418999940156937,
        0.016853999346494675
      ],
      "type": "VEC2"
    },
    {
      "bufferView": 0,
      "componentType": 5125,
      "count": 6048,
      "max": [
        1440
      ],
      "min": [
        0
      ],
      "type": "SCALAR"
    }
  ],
  "asset": {
    "extras": {
      "author": "tinyruin (https://sketchfab.com/tinyruin)",
      "license": "CC-BY-NC-4.0 (http://creativecommons.org/licenses/by-nc/4.0/)",
      "source": "https://sketchfab.com/3d-models/rad-lad-14abf9b637b64ded9aa2f74a472f8eb5",
      "title": "Rad Lad"
    },
    "generator": "Sketchfab-6.72.0",
    "version": "2.0"
  },
  "bufferViews": [
    {
      "buffer": 0,
      "byteLength": 24192,
      "byteOffset": 0,
      "name": "floatBufferViews",
      "target": 34963
    },
    {
      "buffer": 0,
      "byteLength": 11528,
      "byteOffset": 24192,
      "byteStride": 8,
      "name": "floatBufferViews",
      "target": 34962
    },
    {
      "buffer": 0,
      "byteLength": 34584,
      "byteOffset": 35720,
      "byteStride": 12,
      "name": "floatBufferViews",
      "target": 34962
    },
    {
      "buffer": 0,
      "byteLength": 23056,
      "byteOffset": 70304,
      "byteStride": 16,
      "name": "floatBufferViews",
      "target": 34962
    }
  ],
  "buffers": [
    {
      "byteLength": 93360,
      "uri": "scene.bin"
    }
  ],
  "images": [
    {
      "uri": "textures/checker_baseColor.png"
    },
    {
      "uri": "textures/checker_metallicRoughness.png"
    },
    {
      "uri": "textures/checker_emissive.jpeg"
    },
    {
      "uri": "textures/checker_normal.png"
    }
  ],
  "materials": [
    {
      "alphaMode": "BLEND",
      "doubleSided": true,
      "emissiveFactor": [
        1,
        1,
        1
      ],
      "emissiveTexture": {
        "index": 2,
        "texCoord": 0
      },
      "name": "checker",
      "normalTexture": {
        "index": 3,
        "scale": 1,
        "texCoord": 0
      },
      "pbrMetallicRoughness": {
        "baseColorFactor": [
          1,
          1,
          1,
          1
        ],
        "baseColorTexture": {
          "index": 0,
          "texCoord": 0
        },
        "metallicFactor": 1,
        "metallicRoughnessTexture": {
          "index": 1,
          "texCoord": 0
        },
        "roughnessFactor": 1
      }
    }
  ],
  "meshes": [
    {
      "primitives": [
        {
          "attributes": {
            "NORMAL": 1,
            "POSITION": 0,
            "TANGENT": 2,
            "TEXCOORD_0": 3
          },
          "indices": 4,
          "material": 0,
          "mode": 4
        }
      ]
    }
  ],
  "nodes": [
    {
      "children": [
        1
      ],
      "name": "RootNode (gltf orientation matrix)",
      "rotation": [
        -0.70710678118654746,
        -0,
        -0,
        0.70710678118654757
      ]
    },
    {
      "children": [
        2
      ],
      "name": "RootNode (model correction matrix)"
    },
    {
      "children": [
        3
      ],
      "name": "4be04aff194748b7be9d9eed6f238d6a.obj.cleaner.materialmerger.gles"
    },
    {
      "mesh": 0,
      "name": ""
    }
  ],
  "samplers": [
    {
      "magFilter": 9729,
      "minFilter": 9987,
      "wrapS": 10497,
      "wrapT": 10497
    }
  ],
  "scene": 0,
  "scenes": [
    {
      "name": "OSG_Scene",
      "nodes": [
        0
      ]
    }
  ],
  "textures": [
    {
      "sampler": 0,
      "source": 0
    },
    {
      "sampler": 0,
      "source": 1
    },
    {
      "sampler": 0,
      "source": 2
    },
    {
      "sampler": 0,
      "source": 3
    }
  ]
}

